<?xml version="1.0" encoding="UTF-8" standalone="no"?>
<svg width="4442px" height="1353px" viewBox="0 0 4442 1353" version="1.1" xmlns="http://www.w3.org/2000/svg" xmlns:xlink="http://www.w3.org/1999/xlink" xmlns:sketch="http://www.bohemiancoding.com/sketch/ns">
    <!-- Generator: Sketch 3.3.2 (12043) - http://www.bohemiancoding.com/sketch -->
    <title>SpareWorker : Copy</title>
    <desc>Created with Sketch.</desc>
    <defs></defs>
    <g id="Page-1" stroke="none" stroke-width="1" fill="none" fill-rule="evenodd" sketch:type="MSPage">
        <path d="M272.370668,393.00661 C272.370668,385.260354 271.288487,378.254654 269.124092,371.9893 C266.959697,365.723946 262.687928,359.800427 256.308659,354.218566 C249.929389,348.636705 240.987154,343.111885 229.481686,337.64394 C217.976217,332.175994 202.882636,326.366389 184.200489,320.214951 C162.328708,312.924357 141.254651,304.722562 120.977687,295.60932 C100.700723,286.496077 82.7023391,275.674264 66.9819961,263.143556 C51.2616531,250.612848 38.674176,235.974922 29.2191871,219.229339 C19.7641982,202.483757 15.0367746,182.947536 15.0367746,160.620093 C15.0367746,139.203973 19.8211551,119.895581 29.3900595,102.694336 C38.958964,85.493091 52.2868809,70.8551651 69.3742103,58.780119 C86.4615396,46.705073 106.681243,37.3641397 130.033926,30.757039 C153.38661,24.1499384 178.846348,20.8464376 206.413906,20.8464376 C233.525802,20.8464376 258.472929,24.4916798 281.256035,31.7822737 C304.039141,39.0728675 323.632318,49.4390252 340.036154,62.8810576 C356.43999,76.32309 369.255295,92.5558094 378.482453,111.579703 C387.70961,130.603596 392.32312,151.848524 392.32312,175.315123 L272.712413,175.315123 C272.712413,165.974049 271.28849,157.373556 268.440602,149.513384 C265.592714,141.653213 261.263988,134.932297 255.454296,129.350436 C249.644604,123.768575 242.468034,119.382893 233.924369,116.193259 C225.380704,113.003624 215.299331,111.40883 203.679947,111.40883 C192.288395,111.40883 182.263978,112.718839 173.606398,115.338896 C164.948818,117.958954 157.71529,121.604196 151.905598,126.274732 C146.095906,130.945269 141.710224,136.299219 138.748421,142.336742 C135.786617,148.374265 134.305737,154.810396 134.305737,161.645327 C134.305737,169.163752 136.413143,175.941625 140.628017,181.979148 C144.842892,188.016671 150.880324,193.712362 158.740496,199.066392 C166.600667,204.420421 176.169428,209.43263 187.447066,214.103166 C198.724703,218.773703 211.426094,223.387213 225.55162,227.943834 C251.980022,236.373583 275.560183,245.714516 296.292809,255.966914 C317.025436,266.219311 334.511207,277.952435 348.750648,291.166636 C362.990089,304.380838 373.811902,319.303548 381.216412,335.935215 C388.620921,352.566882 392.32312,371.362663 392.32312,392.32312 C392.32312,414.650564 387.937438,434.528525 379.165942,451.957601 C370.394447,469.386677 357.97784,484.024603 341.915751,495.871818 C325.853661,507.719033 306.488312,516.718225 283.819121,522.869664 C261.149931,529.021102 235.91802,532.096775 208.122631,532.096775 C191.035301,532.096775 174.062142,530.672853 157.202644,527.824964 C140.343146,524.977076 124.22434,520.591394 108.845744,514.667787 C93.4671473,508.744179 79.1140059,501.282824 65.7858891,492.283497 C52.4577722,483.28417 40.9524763,472.519314 31.2696564,459.988606 C21.5868364,447.457898 13.9546104,433.21867 8.37274952,417.270496 C2.7908886,401.322322 0,383.551766 0,363.958295 L120.294197,363.958295 C120.294197,378.539483 122.230732,390.785219 126.10386,400.69587 C129.976988,410.606521 135.672679,418.637445 143.191104,424.788884 C150.709529,430.940322 159.879591,435.326004 170.701567,437.946061 C181.523542,440.566119 193.997105,441.876128 208.122631,441.876128 C219.514184,441.876128 229.253815,440.566119 237.341818,437.946061 C245.42982,435.326004 252.093779,431.794676 257.333893,427.35197 C262.574008,422.909265 266.390121,417.726186 268.782347,411.802578 C271.174573,405.878971 272.370668,399.613711 272.370668,393.00661 L272.370668,393.00661 Z M791.822883,343.111858 C791.822883,369.995923 788.74721,394.943049 782.595771,417.953986 C776.444333,440.964923 767.27427,460.956798 755.085308,477.930212 C742.896347,494.903626 727.859723,508.174586 709.974984,517.74349 C692.090246,527.312395 671.528802,532.096775 648.290034,532.096775 C630.063549,532.096775 614.115614,528.793275 600.445751,522.186174 C586.775888,515.579073 574.814936,506.465968 564.562539,494.846584 L564.562539,667.427747 L449.394515,667.427747 L449.394515,155.49392 L557.044151,155.49392 L560.4616,189.668407 C570.941829,176.682037 583.244521,166.600664 597.370047,159.423986 C611.495573,152.247307 628.240904,148.659022 647.606544,148.659022 C671.073143,148.659022 691.805458,153.158618 709.804112,162.157945 C727.802766,171.157271 742.83939,183.858662 754.914436,200.262499 C766.989482,216.666335 776.159545,236.373426 782.424899,259.384363 C788.690253,282.395299 791.822883,307.911995 791.822883,335.935215 L791.822883,343.111858 Z M676.654859,335.935215 C676.654859,321.581859 675.629634,308.367855 673.579155,296.292809 C671.528675,284.217763 668.282132,273.851606 663.839426,265.194025 C659.39672,256.536445 653.473202,249.758573 646.068692,244.860205 C638.664183,239.961837 629.721948,237.51269 619.241719,237.51269 C605.116194,237.51269 593.610898,239.961837 584.725487,244.860205 C575.840075,249.758573 569.11916,257.106014 564.562539,266.90275 L564.562539,412.486068 C569.346991,422.282803 576.18182,429.858073 585.067231,435.212102 C593.952643,440.566132 605.571852,443.243107 619.925209,443.243107 C630.8611,443.243107 639.917249,440.623089 647.093927,435.382975 C654.270605,430.14286 660.08021,423.023247 664.522916,414.02392 C668.965621,405.024593 672.098251,394.430608 673.9209,382.241646 C675.743548,370.052685 676.654859,357.009552 676.654859,343.111858 L676.654859,335.935215 Z M1050.8655,525.261878 C1048.35936,520.705257 1046.25195,515.636092 1044.54322,510.054231 C1042.83449,504.47237 1041.29665,498.491894 1039.92966,492.112625 C1031.04425,503.276346 1019.53896,512.731194 1005.41343,520.477449 C991.287906,528.223705 973.175609,532.096775 951.075996,532.096775 C933.988667,532.096775 917.869861,529.362844 902.719096,523.894898 C887.56833,518.426953 874.29737,510.851684 862.905817,501.168864 C851.514265,491.486044 842.458116,479.809877 835.7371,466.140014 C829.016083,452.47015 825.655626,437.433526 825.655626,421.02969 C825.655626,401.891881 829.129997,384.804808 836.078845,369.767958 C843.027692,354.731108 853.621677,342.029717 867.861118,331.663404 C882.100559,321.297091 900.098943,313.323124 921.856809,307.741263 C943.614675,302.159402 969.416155,299.368513 999.262024,299.368513 L1034.80349,299.368513 L1034.80349,279.889055 C1034.80349,264.168712 1031.38608,251.752106 1024.55114,242.638864 C1017.71621,233.525621 1006.43874,228.969068 990.718402,228.969068 C977.504201,228.969068 967.365871,232.272569 960.303108,238.87967 C953.240345,245.486771 949.709017,255.625101 949.709017,269.294964 L834.540993,269.294964 C834.540993,252.207635 838.357106,236.2597 845.989446,221.450681 C853.621786,206.641662 864.500556,193.883314 878.626082,183.175255 C892.751607,172.467195 909.781724,164.037572 929.716941,157.886134 C949.652159,151.734695 971.922311,148.659022 996.528065,148.659022 C1018.62768,148.659022 1039.07521,151.392954 1057.87127,156.860899 C1076.66733,162.328844 1092.90005,170.587596 1106.56992,181.637403 C1120.23978,192.687209 1130.94768,206.470781 1138.69393,222.988533 C1146.44019,239.506285 1150.31326,258.700763 1150.31326,280.572545 L1150.31326,431.965526 C1150.31326,444.040572 1150.655,454.520644 1151.33849,463.406055 C1152.02199,472.291466 1153.04721,480.094563 1154.4142,486.815579 C1155.78118,493.536595 1157.43294,499.517071 1159.3695,504.757185 C1161.30606,509.997299 1163.52738,514.895594 1166.03352,519.452215 L1166.03352,525.261878 L1050.8655,525.261878 Z M978.757331,450.078005 C993.110688,450.078005 1005.01468,447.002331 1014.46967,440.850893 C1023.92466,434.699454 1030.70253,427.750711 1034.80349,420.004455 L1034.80349,360.882591 L998.578534,360.882591 C987.870474,360.882591 978.814326,362.363471 971.409816,365.325275 C964.005307,368.287079 958.081788,372.274062 953.639083,377.286346 C949.196377,382.298629 946.00679,388.051277 944.070226,394.544462 C942.133662,401.037647 941.165395,407.815519 941.165395,414.878282 C941.165395,425.358511 944.696723,433.84509 951.759486,440.338276 C958.822249,446.831461 967.82144,450.078005 978.757331,450.078005 L978.757331,450.078005 Z M1437.7207,259.726107 C1435.44239,259.498276 1432.6515,259.213492 1429.34795,258.871745 C1426.0444,258.529999 1422.62699,258.245214 1419.09561,258.017383 C1415.56423,257.789552 1412.08985,257.561724 1408.67239,257.333893 C1405.25492,257.106062 1402.29316,256.992148 1399.78702,256.992148 C1381.33271,256.992148 1366.40999,259.783037 1355.01844,265.364898 C1343.62689,270.946759 1335.31118,279.547252 1330.07107,291.166636 L1330.07107,525.261878 L1214.90304,525.261878 L1214.90304,155.49392 L1322.89442,155.49392 L1326.65362,202.996458 C1335.76686,185.909128 1347.10128,172.581211 1360.65723,163.012307 C1374.21318,153.443402 1389.87633,148.659022 1407.64715,148.659022 C1413.34293,148.659022 1418.98166,149.000763 1424.56352,149.684257 C1430.14539,150.36775 1435.21455,151.392974 1439.77117,152.759961 L1437.7207,259.726107 Z M1651.653,532.096775 C1621.5793,532.096775 1594.69564,527.312395 1571.00121,517.74349 C1547.30678,508.174586 1527.37186,495.188411 1511.19585,478.784574 C1495.01985,462.380738 1482.6602,443.35713 1474.11653,421.71318 C1465.57287,400.069229 1461.3011,377.058637 1461.3011,352.680714 L1461.3011,339.694409 C1461.3011,312.810344 1465.0033,287.692347 1472.40781,264.339663 C1479.81232,240.98698 1490.97587,220.767277 1505.89881,203.679947 C1520.82174,186.592618 1539.38969,173.150787 1561.60322,163.354052 C1583.81675,153.557316 1609.73214,148.659022 1639.35018,148.659022 C1665.55075,148.659022 1689.07396,152.873833 1709.9205,161.303583 C1730.76704,169.733332 1748.42368,181.808197 1762.89095,197.52854 C1777.35823,213.248883 1788.40787,232.272491 1796.04021,254.599934 C1803.67255,276.927378 1807.48866,301.988418 1807.48866,329.783807 L1807.48866,376.602856 L1578.51959,376.602856 C1582.62055,397.335482 1591.61974,413.625158 1605.51744,425.472373 C1619.41513,437.319588 1637.41352,443.243107 1659.51313,443.243107 C1675.23347,443.243107 1690.66879,440.281348 1705.81956,434.35774 C1720.97032,428.434133 1734.01346,418.637544 1744.94935,404.967681 L1797.57806,467.165248 C1791.65445,475.367167 1784.07918,483.341134 1774.85202,491.08739 C1765.62487,498.833646 1754.86001,505.725432 1742.55713,511.762955 C1730.25426,517.800478 1716.47068,522.698772 1701.206,526.457985 C1685.94132,530.217197 1669.42382,532.096775 1651.653,532.096775 L1651.653,532.096775 Z M1638.66669,237.51269 C1628.86996,237.51269 1620.44033,239.221398 1613.37757,242.638864 C1606.31481,246.056329 1600.44825,250.726796 1595.77771,256.650404 C1591.10717,262.574011 1587.40497,269.636668 1584.671,277.838586 C1581.93703,286.040504 1579.88658,294.925782 1578.51959,304.494686 L1694.71285,304.494686 L1694.71285,295.60932 C1695.16851,277.155004 1690.49805,262.85882 1680.70131,252.720337 C1670.90458,242.581855 1656.89318,237.51269 1638.66669,237.51269 L1638.66669,237.51269 Z M2244.58036,339.694409 L2301.65175,27.6813351 L2420.57897,27.6813351 L2314.9798,525.261878 L2190.58467,525.261878 L2123.94442,241.613629 L2058.67115,525.261878 L1934.61776,525.261878 L1828.67684,27.6813351 L1947.94581,27.6813351 L2005.0172,339.694409 L2073.36618,27.6813351 L2175.20615,27.6813351 L2244.58036,339.694409 Z M2436.98273,336.96045 C2436.98273,310.076385 2440.8558,285.129258 2448.60205,262.118322 C2456.34831,239.107385 2467.73969,219.172466 2482.77654,202.312968 C2497.81339,185.45347 2516.4383,172.296423 2538.65183,162.841434 C2560.86536,153.386446 2586.32509,148.659022 2615.03181,148.659022 C2644.19418,148.659022 2669.88175,153.386446 2692.09528,162.841434 C2714.30881,172.296423 2732.93372,185.45347 2747.97057,202.312968 C2763.00742,219.172466 2774.3988,239.107385 2782.14505,262.118322 C2789.89131,285.129258 2793.76438,310.076385 2793.76438,336.96045 L2793.76438,344.137092 C2793.76438,371.248988 2789.94827,396.253072 2782.31593,419.150093 C2774.68359,442.047114 2763.34916,461.868119 2748.31231,478.613702 C2733.27546,495.359285 2714.65055,508.459374 2692.43702,517.914363 C2670.22349,527.369352 2644.64984,532.096775 2615.7153,532.096775 C2586.78075,532.096775 2561.2071,527.369352 2538.99357,517.914363 C2516.78004,508.459374 2498.09818,495.359285 2482.94741,478.613702 C2467.79665,461.868119 2456.34831,442.047114 2448.60205,419.150093 C2440.8558,396.253072 2436.98273,371.248988 2436.98273,344.137092 L2436.98273,336.96045 Z M2552.15075,344.137092 C2552.15075,358.034787 2553.11902,371.020962 2555.05558,383.096008 C2556.99215,395.171055 2560.40956,405.651126 2565.30793,414.536537 C2570.2063,423.421949 2576.75634,430.427648 2584.95826,435.553847 C2593.16018,440.680046 2603.41242,443.243107 2615.7153,443.243107 C2627.79034,443.243107 2637.87172,440.680046 2645.95972,435.553847 C2654.04772,430.427648 2660.48385,423.421949 2665.26831,414.536537 C2670.05276,405.651126 2673.47017,395.171055 2675.52065,383.096008 C2677.57113,371.020962 2678.59636,358.034787 2678.59636,344.137092 L2678.59636,336.96045 C2678.59636,323.518417 2677.62809,310.76007 2675.69152,298.685024 C2673.75496,286.609977 2670.33755,276.072949 2665.43918,267.073622 C2660.54081,258.074296 2653.99077,250.897725 2645.78885,245.543695 C2637.58693,240.189665 2627.33469,237.51269 2615.03181,237.51269 C2602.95676,237.51269 2592.87539,240.189665 2584.78739,245.543695 C2576.69938,250.897725 2570.26325,258.074296 2565.4788,267.073622 C2560.69435,276.072949 2557.27693,286.609977 2555.22645,298.685024 C2553.17597,310.76007 2552.15075,323.518417 2552.15075,336.96045 L2552.15075,344.137092 Z M3068.18552,259.726107 C3065.90721,259.498276 3063.11632,259.213492 3059.81277,258.871745 C3056.50922,258.529999 3053.0918,258.245214 3049.56042,258.017383 C3046.02904,257.789552 3042.55467,257.561724 3039.1372,257.333893 C3035.71974,257.106062 3032.75798,256.992148 3030.25183,256.992148 C3011.79752,256.992148 2996.87481,259.783037 2985.48326,265.364898 C2974.0917,270.946759 2965.77599,279.547252 2960.53588,291.166636 L2960.53588,525.261878 L2845.36786,525.261878 L2845.36786,155.49392 L2953.35924,155.49392 L2957.11843,202.996458 C2966.23167,185.909128 2977.5661,172.581211 2991.12205,163.012307 C3004.67799,153.443402 3020.34114,148.659022 3038.11197,148.659022 C3043.80774,148.659022 3049.44648,149.000763 3055.02834,149.684257 C3060.6102,150.36775 3065.67936,151.392974 3070.23599,152.759961 L3068.18552,259.726107 Z M3258.19567,387.538692 L3225.72991,420.004455 L3225.72991,525.261878 L3110.56188,525.261878 L3110.56188,0 L3225.72991,0 L3225.72991,278.863821 L3237.34923,263.485301 L3324.15243,155.49392 L3462.21736,155.49392 L3332.69605,307.57039 L3470.76098,525.261878 L3338.84746,525.261878 L3258.19567,387.538692 Z M3664.53033,532.096775 C3634.45663,532.096775 3607.57297,527.312395 3583.87854,517.74349 C3560.18411,508.174586 3540.24919,495.188411 3524.07318,478.784574 C3507.89718,462.380738 3495.53753,443.35713 3486.99386,421.71318 C3478.4502,400.069229 3474.17843,377.058637 3474.17843,352.680714 L3474.17843,339.694409 C3474.17843,312.810344 3477.88063,287.692347 3485.28514,264.339663 C3492.68965,240.98698 3503.8532,220.767277 3518.77614,203.679947 C3533.69907,186.592618 3552.26703,173.150787 3574.48055,163.354052 C3596.69408,153.557316 3622.60948,148.659022 3652.22751,148.659022 C3678.42808,148.659022 3701.95129,152.873833 3722.79783,161.303583 C3743.64437,169.733332 3761.30101,181.808197 3775.76829,197.52854 C3790.23556,213.248883 3801.2852,232.272491 3808.91754,254.599934 C3816.54988,276.927378 3820.36599,301.988418 3820.36599,329.783807 L3820.36599,376.602856 L3591.39692,376.602856 C3595.49788,397.335482 3604.49708,413.625158 3618.39477,425.472373 C3632.29246,437.319588 3650.29085,443.243107 3672.39046,443.243107 C3688.1108,443.243107 3703.54613,440.281348 3718.69689,434.35774 C3733.84766,428.434133 3746.89079,418.637544 3757.82668,404.967681 L3810.45539,467.165248 C3804.53178,475.367167 3796.95652,483.341134 3787.72936,491.08739 C3778.5022,498.833646 3767.73734,505.725432 3755.43447,511.762955 C3743.13159,517.800478 3729.34802,522.698772 3714.08334,526.457985 C3698.81866,530.217197 3682.30115,532.096775 3664.53033,532.096775 L3664.53033,532.096775 Z M3651.54402,237.51269 C3641.74729,237.51269 3633.31767,239.221398 3626.2549,242.638864 C3619.19214,246.056329 3613.32558,250.726796 3608.65504,256.650404 C3603.9845,262.574011 3600.28231,269.636668 3597.54833,277.838586 C3594.81436,286.040504 3592.76391,294.925782 3591.39692,304.494686 L3707.59018,304.494686 L3707.59018,295.60932 C3708.04585,277.155004 3703.37538,262.85882 3693.57864,252.720337 C3683.78191,242.581855 3669.77051,237.51269 3651.54402,237.51269 L3651.54402,237.51269 Z M4090.34445,259.726107 C4088.06614,259.498276 4085.27525,259.213492 4081.9717,258.871745 C4078.66815,258.529999 4075.25073,258.245214 4071.71935,258.017383 C4068.18797,257.789552 4064.7136,257.561724 4061.29613,257.333893 C4057.87867,257.106062 4054.91691,256.992148 4052.41077,256.992148 C4033.95645,256.992148 4019.03374,259.783037 4007.64219,265.364898 C3996.25063,270.946759 3987.93492,279.547252 3982.69481,291.166636 L3982.69481,525.261878 L3867.52679,525.261878 L3867.52679,155.49392 L3975.51817,155.49392 L3979.27736,202.996458 C3988.3906,185.909128 3999.72503,172.581211 4013.28098,163.012307 C4026.83693,153.443402 4042.50008,148.659022 4060.2709,148.659022 C4065.96667,148.659022 4071.60541,149.000763 4077.18727,149.684257 C4082.76913,150.36775 4087.8383,151.392974 4092.39492,152.759961 L4090.34445,259.726107 Z M4314.18734,471.266187 C4314.18734,463.064269 4315.72518,455.432043 4318.8009,448.36928 C4321.87662,441.306517 4326.20534,435.212128 4331.7872,430.085929 C4337.36906,424.95973 4344.03302,420.91579 4351.77928,417.953986 C4359.52553,414.992182 4368.18299,413.511303 4377.75189,413.511303 C4387.09296,413.511303 4395.69346,414.992182 4403.55363,417.953986 C4411.4138,420.91579 4418.13471,424.95973 4423.71658,430.085929 C4429.29844,435.212128 4433.62716,441.306517 4436.70288,448.36928 C4439.7786,455.432043 4441.31644,463.064269 4441.31644,471.266187 C4441.31644,479.468105 4439.7786,487.100331 4436.70288,494.163094 C4433.62716,501.225857 4429.29844,507.320246 4423.71658,512.446445 C4418.13471,517.572644 4411.4138,521.616584 4403.55363,524.578388 C4395.69346,527.540192 4387.09296,529.021071 4377.75189,529.021071 C4368.18299,529.021071 4359.52553,527.540192 4351.77928,524.578388 C4344.03302,521.616584 4337.36906,517.572644 4331.7872,512.446445 C4326.20534,507.320246 4321.87662,501.225857 4318.8009,494.163094 C4315.72518,487.100331 4314.18734,479.468105 4314.18734,471.266187 L4314.18734,471.266187 Z M4314.18734,198.553774 C4314.18734,190.351856 4315.72518,182.71963 4318.8009,175.656867 C4321.87662,168.594105 4326.20534,162.499715 4331.7872,157.373516 C4337.36906,152.247318 4344.03302,148.203377 4351.77928,145.241573 C4359.52553,142.279769 4368.18299,140.79889 4377.75189,140.79889 C4387.09296,140.79889 4395.69346,142.279769 4403.55363,145.241573 C4411.4138,148.203377 4418.13471,152.247318 4423.71658,157.373516 C4429.29844,162.499715 4433.62716,168.594105 4436.70288,175.656867 C4439.7786,182.71963 4441.31644,190.351856 4441.31644,198.553774 C4441.31644,206.755692 4439.7786,214.387918 4436.70288,221.450681 C4433.62716,228.513444 4429.29844,234.607833 4423.71658,239.734032 C4418.13471,244.860231 4411.4138,248.904171 4403.55363,251.865975 C4395.69346,254.827779 4387.09296,256.308659 4377.75189,256.308659 C4368.18299,256.308659 4359.52553,254.827779 4351.77928,251.865975 C4344.03302,248.904171 4337.36906,244.860231 4331.7872,239.734032 C4326.20534,234.607833 4321.87662,228.513444 4318.8009,221.450681 C4315.72518,214.387918 4314.18734,206.755692 4314.18734,198.553774 L4314.18734,198.553774 Z M272.370668,1213.04851 C272.370668,1205.30225 271.288487,1198.29655 269.124092,1192.0312 C266.959697,1185.76584 262.687928,1179.84232 256.308659,1174.26046 C249.929389,1168.6786 240.987154,1163.15378 229.481686,1157.68584 C217.976217,1152.21789 202.882636,1146.40829 184.200489,1140.25685 C162.328708,1132.96625 141.254651,1124.76446 120.977687,1115.65122 C100.700723,1106.53797 82.7023391,1095.71616 66.9819961,1083.18545 C51.2616531,1070.65474 38.674176,1056.01682 29.2191871,1039.27124 C19.7641982,1022.52565 15.0367746,1002.98943 15.0367746,980.661989 C15.0367746,959.24587 19.8211551,939.937477 29.3900595,922.736232 C38.958964,905.534988 52.2868809,890.897062 69.3742103,878.822016 C86.4615396,866.74697 106.681243,857.406036 130.033926,850.798936 C153.38661,844.191835 178.846348,840.888334 206.413906,840.888334 C233.525802,840.888334 258.472929,844.533576 281.256035,851.82417 C304.039141,859.114764 323.632318,869.480922 340.036154,882.922954 C356.43999,896.364987 369.255295,912.597706 378.482453,931.621599 C387.70961,950.645493 392.32312,971.89042 392.32312,995.357019 L272.712413,995.357019 C272.712413,986.015946 271.28849,977.415452 268.440602,969.555281 C265.592714,961.695109 261.263988,954.974194 255.454296,949.392333 C249.644604,943.810472 242.468034,939.42479 233.924369,936.235155 C225.380704,933.04552 215.299331,931.450727 203.679947,931.450727 C192.288395,931.450727 182.263978,932.760736 173.606398,935.380793 C164.948818,938.00085 157.71529,941.646092 151.905598,946.316629 C146.095906,950.987166 141.710224,956.341115 138.748421,962.378638 C135.786617,968.416161 134.305737,974.852292 134.305737,981.687224 C134.305737,989.205649 136.413143,995.983521 140.628017,1002.02104 C144.842892,1008.05857 150.880324,1013.75426 158.740496,1019.10829 C166.600667,1024.46232 176.169428,1029.47453 187.447066,1034.14506 C198.724703,1038.8156 211.426094,1043.42911 225.55162,1047.98573 C251.980022,1056.41548 275.560183,1065.75641 296.292809,1076.00881 C317.025436,1086.26121 334.511207,1097.99433 348.750648,1111.20853 C362.990089,1124.42273 373.811902,1139.34544 381.216412,1155.97711 C388.620921,1172.60878 392.32312,1191.40456 392.32312,1212.36502 C392.32312,1234.69246 387.937438,1254.57042 379.165942,1271.9995 C370.394447,1289.42857 357.97784,1304.0665 341.915751,1315.91371 C325.853661,1327.76093 306.488312,1336.76012 283.819121,1342.91156 C261.149931,1349.063 235.91802,1352.13867 208.122631,1352.13867 C191.035301,1352.13867 174.062142,1350.71475 157.202644,1347.86686 C140.343146,1345.01897 124.22434,1340.63329 108.845744,1334.70968 C93.4671473,1328.78608 79.1140059,1321.32472 65.7858891,1312.32539 C52.4577722,1303.32607 40.9524763,1292.56121 31.2696564,1280.0305 C21.5868364,1267.49979 13.9546104,1253.26057 8.37274952,1237.31239 C2.7908886,1221.36422 0,1203.59366 0,1184.00019 L120.294197,1184.00019 C120.294197,1198.58138 122.230732,1210.82712 126.10386,1220.73777 C129.976988,1230.64842 135.672679,1238.67934 143.191104,1244.83078 C150.709529,1250.98222 159.879591,1255.3679 170.701567,1257.98796 C181.523542,1260.60802 193.997105,1261.91802 208.122631,1261.91802 C219.514184,1261.91802 229.253815,1260.60802 237.341818,1257.98796 C245.42982,1255.3679 252.093779,1251.83657 257.333893,1247.39387 C262.574008,1242.95116 266.390121,1237.76808 268.782347,1231.84447 C271.174573,1225.92087 272.370668,1219.65561 272.370668,1213.04851 L272.370668,1213.04851 Z M656.833656,1345.30377 C654.327514,1340.74715 652.220109,1335.67799 650.511376,1330.09613 C648.802643,1324.51427 647.264806,1318.53379 645.89782,1312.15452 C637.012409,1323.31824 625.507113,1332.77309 611.381587,1340.51935 C597.256062,1348.2656 579.143764,1352.13867 557.044151,1352.13867 C539.956822,1352.13867 523.838017,1349.40474 508.687251,1343.93679 C493.536486,1338.46885 480.265526,1330.89358 468.873973,1321.21076 C457.48242,1311.52794 448.426271,1299.85177 441.705255,1286.18191 C434.984239,1272.51205 431.623781,1257.47542 431.623781,1241.07159 C431.623781,1221.93378 435.098153,1204.8467 442.047,1189.80985 C448.995847,1174.773 459.589832,1162.07161 473.829274,1151.7053 C488.068715,1141.33899 506.067098,1133.36502 527.824964,1127.78316 C549.58283,1122.2013 575.384311,1119.41041 605.230179,1119.41041 L640.771647,1119.41041 L640.771647,1099.93095 C640.771647,1084.21061 637.354232,1071.794 630.5193,1062.68076 C623.684369,1053.56752 612.4069,1049.01096 596.686557,1049.01096 C583.472356,1049.01096 573.334026,1052.31447 566.271263,1058.92157 C559.2085,1065.52867 555.677172,1075.667 555.677172,1089.33686 L440.509148,1089.33686 C440.509148,1072.24953 444.325261,1056.3016 451.957601,1041.49258 C459.589942,1026.68356 470.468712,1013.92521 484.594237,1003.21715 C498.719763,992.509092 515.749879,984.079469 535.685097,977.92803 C555.620314,971.776592 577.890466,968.700919 602.49622,968.700919 C624.595833,968.700919 645.043364,971.43485 663.839426,976.902796 C682.635488,982.370741 698.868208,990.629493 712.538071,1001.6793 C726.207935,1012.72911 736.915834,1026.51268 744.66209,1043.03043 C752.408346,1059.54818 756.281415,1078.74266 756.281415,1100.61444 L756.281415,1252.00742 C756.281415,1264.08247 756.623157,1274.56254 757.30665,1283.44795 C757.990143,1292.33336 759.015368,1300.13646 760.382354,1306.85748 C761.74934,1313.57849 763.401091,1319.55897 765.337655,1324.79908 C767.274219,1330.0392 769.495538,1334.93749 772.00168,1339.49411 L772.00168,1345.30377 L656.833656,1345.30377 Z M584.725487,1270.1199 C599.078843,1270.1199 610.982837,1267.04423 620.437826,1260.89279 C629.892815,1254.74135 636.670688,1247.79261 640.771647,1240.04635 L640.771647,1180.92449 L604.54669,1180.92449 C593.83863,1180.92449 584.782481,1182.40537 577.377972,1185.36717 C569.973462,1188.32898 564.049944,1192.31596 559.607238,1197.32824 C555.164532,1202.34053 551.974945,1208.09317 550.038381,1214.58636 C548.101817,1221.07954 547.13355,1227.85742 547.13355,1234.92018 C547.13355,1245.40041 550.664878,1253.88699 557.727641,1260.38017 C564.790404,1266.87336 573.789596,1270.1199 584.725487,1270.1199 L584.725487,1270.1199 Z M941.507139,1345.30377 L825.997371,1345.30377 L825.997371,975.535816 L941.507139,975.535816 L941.507139,1345.30377 Z M819.162473,880.188995 C819.162473,871.987077 820.70031,864.468765 823.776029,857.633833 C826.851748,850.798901 831.23743,844.875383 836.933207,839.863099 C842.628983,834.850816 849.349899,830.977746 857.096155,828.243774 C864.84241,825.509801 873.499861,824.142835 883.068765,824.142835 C892.63767,824.142835 901.29512,825.509801 909.041376,828.243774 C916.787632,830.977746 923.508547,834.850816 929.204324,839.863099 C934.9001,844.875383 939.285782,850.798901 942.361502,857.633833 C945.437221,864.468765 946.975057,871.987077 946.975057,880.188995 C946.975057,888.390913 945.437221,895.909225 942.361502,902.744157 C939.285782,909.579089 934.9001,915.502607 929.204324,920.514891 C923.508547,925.527174 916.787632,929.400244 909.041376,932.134217 C901.29512,934.868189 892.63767,936.235155 883.068765,936.235155 C873.499861,936.235155 864.84241,934.868189 857.096155,932.134217 C849.349899,929.400244 842.628983,925.527174 836.933207,920.514891 C831.23743,915.502607 826.851748,909.579089 823.776029,902.744157 C820.70031,895.909225 819.162473,888.390913 819.162473,880.188995 L819.162473,880.188995 Z M1206.01768,1241.41333 C1206.01768,1236.62888 1204.93549,1232.41407 1202.7711,1228.76877 C1200.6067,1225.12347 1196.79059,1221.6491 1191.32265,1218.34555 C1185.8547,1215.042 1178.4503,1211.90937 1169.10923,1208.94757 C1159.76815,1205.98576 1147.92112,1202.91009 1133.56776,1199.72046 C1115.56911,1195.84733 1098.65291,1190.77816 1082.81865,1184.51281 C1066.98439,1178.24746 1053.20082,1170.50132 1041.46752,1161.27416 C1029.73422,1152.047 1020.5072,1141.16823 1013.78618,1128.63752 C1007.06516,1116.10681 1003.70471,1101.75367 1003.70471,1085.57767 C1003.70471,1069.85732 1007.06516,1054.93461 1013.78618,1040.80909 C1020.5072,1026.68356 1030.36074,1014.26696 1043.34711,1003.5589 C1056.33348,992.850836 1072.28142,984.364257 1091.1914,978.098903 C1110.10137,971.833549 1131.63109,968.700919 1155.78118,968.700919 C1180.61476,968.700919 1203.05579,971.662678 1223.10492,977.586285 C1243.15405,983.509893 1260.18417,991.768645 1274.19578,1002.36279 C1288.20739,1012.95693 1298.97224,1025.60137 1306.49067,1040.29647 C1314.00909,1054.99157 1317.76825,1071.22429 1317.76825,1088.99512 L1202.25848,1088.99512 C1202.25848,1074.86959 1198.72715,1063.93386 1191.66439,1056.18761 C1184.60163,1048.44135 1172.52676,1044.56828 1155.43943,1044.56828 C1149.51583,1044.56828 1143.99101,1045.42264 1138.86481,1047.13137 C1133.73861,1048.8401 1129.23901,1051.23229 1125.36588,1054.30801 C1121.49276,1057.38373 1118.41708,1061.08593 1116.13877,1065.41472 C1113.86046,1069.74351 1112.72132,1074.52789 1112.72132,1079.768 C1112.72132,1089.79257 1117.56266,1097.99437 1127.24548,1104.37364 C1136.9283,1110.7529 1152.59145,1115.99294 1174.2354,1120.0939 C1192.91755,1123.51137 1210.85897,1127.89705 1228.06022,1133.25108 C1245.26146,1138.60511 1260.46896,1145.78168 1273.68316,1154.781 C1286.89736,1163.78033 1297.43439,1175.00084 1305.29456,1188.44288 C1313.15473,1201.88491 1317.08476,1218.40241 1317.08476,1237.99588 C1317.08476,1254.39972 1313.3256,1269.55026 1305.80718,1283.44795 C1298.28875,1297.34565 1287.5239,1309.36355 1273.51229,1319.50204 C1259.50068,1329.64052 1242.58448,1337.61449 1222.76317,1343.42418 C1202.94187,1349.23387 1180.61476,1352.13867 1155.78118,1352.13867 C1129.12494,1352.13867 1105.60174,1348.37952 1085.21086,1340.86109 C1064.81998,1333.34267 1047.73291,1323.60303 1033.94913,1311.6419 C1020.16535,1299.68077 1009.74224,1286.23894 1002.67947,1271.31601 C995.61671,1256.39307 992.085381,1241.52732 992.085381,1226.7183 L1099.73502,1226.7183 C1100.19068,1243.80563 1105.88637,1256.27919 1116.82226,1264.13937 C1127.75815,1271.99954 1141.76955,1275.92956 1158.85688,1275.92956 C1174.57722,1275.92956 1186.36731,1272.73998 1194.22748,1266.36071 C1202.08765,1259.98144 1206.01768,1251.66573 1206.01768,1241.41333 L1206.01768,1241.41333 Z M1356.38542,1157.00235 C1356.38542,1130.11828 1360.25849,1105.17115 1368.00475,1082.16022 C1375.751,1059.14928 1387.14239,1039.21436 1402.17924,1022.35486 C1417.21609,1005.49537 1435.84099,992.33832 1458.05452,982.883331 C1480.26805,973.428342 1505.72779,968.700919 1534.4345,968.700919 C1563.59688,968.700919 1589.28444,973.428342 1611.49797,982.883331 C1633.7115,992.33832 1652.33641,1005.49537 1667.37326,1022.35486 C1682.41011,1039.21436 1693.80149,1059.14928 1701.54775,1082.16022 C1709.294,1105.17115 1713.16707,1130.11828 1713.16707,1157.00235 L1713.16707,1164.17899 C1713.16707,1191.29088 1709.35096,1216.29497 1701.71862,1239.19199 C1694.08628,1262.08901 1682.75186,1281.91002 1667.71501,1298.6556 C1652.67816,1315.40118 1634.05325,1328.50127 1611.83972,1337.95626 C1589.62619,1347.41125 1564.05254,1352.13867 1535.11799,1352.13867 C1506.18345,1352.13867 1480.6098,1347.41125 1458.39627,1337.95626 C1436.18274,1328.50127 1417.50087,1315.40118 1402.35011,1298.6556 C1387.19934,1281.91002 1375.751,1262.08901 1368.00475,1239.19199 C1360.25849,1216.29497 1356.38542,1191.29088 1356.38542,1164.17899 L1356.38542,1157.00235 Z M1471.55345,1164.17899 C1471.55345,1178.07668 1472.52171,1191.06286 1474.45828,1203.1379 C1476.39484,1215.21295 1479.81226,1225.69302 1484.71062,1234.57843 C1489.60899,1243.46385 1496.15904,1250.46954 1504.36095,1255.59574 C1512.56287,1260.72194 1522.81512,1263.285 1535.11799,1263.285 C1547.19304,1263.285 1557.27441,1260.72194 1565.36241,1255.59574 C1573.45042,1250.46954 1579.88655,1243.46385 1584.671,1234.57843 C1589.45545,1225.69302 1592.87287,1215.21295 1594.92335,1203.1379 C1596.97383,1191.06286 1597.99905,1178.07668 1597.99905,1164.17899 L1597.99905,1157.00235 C1597.99905,1143.56031 1597.03078,1130.80197 1595.09422,1118.72692 C1593.15765,1106.65187 1589.74024,1096.11485 1584.84187,1087.11552 C1579.9435,1078.11619 1573.39346,1070.93962 1565.19154,1065.58559 C1556.98962,1060.23156 1546.73738,1057.55459 1534.4345,1057.55459 C1522.35946,1057.55459 1512.27808,1060.23156 1504.19008,1065.58559 C1496.10208,1070.93962 1489.66595,1078.11619 1484.8815,1087.11552 C1480.09704,1096.11485 1476.67963,1106.65187 1474.62915,1118.72692 C1472.57867,1130.80197 1471.55345,1143.56031 1471.55345,1157.00235 L1471.55345,1164.17899 Z M1869.68623,975.535816 L1873.44542,1018.93742 C1885.97613,1002.53358 1901.18363,990.060016 1919.06836,981.516351 C1936.9531,972.972687 1956.94498,968.700919 1979.04459,968.700919 C1996.13192,968.700919 2011.79507,971.150066 2026.03451,976.048433 C2040.27395,980.946801 2052.51969,989.034682 2062.77208,1000.31232 C2073.02448,1011.58996 2080.94149,1026.39875 2086.52335,1044.73915 C2092.10521,1063.07955 2094.8961,1085.69145 2094.8961,1112.57551 L2094.8961,1345.30377 L1979.38633,1345.30377 L1979.38633,1112.23377 C1979.38633,1101.07005 1978.19024,1091.95694 1975.79801,1084.89418 C1973.40579,1077.83141 1969.98837,1072.24964 1965.54567,1068.14868 C1961.10296,1064.04772 1955.6351,1061.25683 1949.14191,1059.77593 C1942.64873,1058.29503 1935.30129,1057.55459 1927.09937,1057.55459 C1914.79649,1057.55459 1904.6012,1059.94678 1896.5132,1064.73123 C1888.4252,1069.51568 1881.87515,1076.00877 1876.86287,1084.21069 L1876.86287,1345.30377 L1761.69485,1345.30377 L1761.69485,975.535816 L1869.68623,975.535816 Z M2438.69145,975.535816 L2442.45064,1018.93742 C2454.98135,1002.53358 2470.18885,990.060016 2488.07359,981.516351 C2505.95832,972.972687 2525.9502,968.700919 2548.04981,968.700919 C2565.13714,968.700919 2580.80029,971.150066 2595.03973,976.048433 C2609.27917,980.946801 2621.52491,989.034682 2631.77731,1000.31232 C2642.0297,1011.58996 2649.94672,1026.39875 2655.52858,1044.73915 C2661.11044,1063.07955 2663.90133,1085.69145 2663.90133,1112.57551 L2663.90133,1345.30377 L2548.39156,1345.30377 L2548.39156,1112.23377 C2548.39156,1101.07005 2547.19546,1091.95694 2544.80324,1084.89418 C2542.41101,1077.83141 2538.99359,1072.24964 2534.55089,1068.14868 C2530.10818,1064.04772 2524.64032,1061.25683 2518.14713,1059.77593 C2511.65395,1058.29503 2504.30651,1057.55459 2496.10459,1057.55459 C2483.80171,1057.55459 2473.60643,1059.94678 2465.51842,1064.73123 C2457.43042,1069.51568 2450.88038,1076.00877 2445.86809,1084.21069 L2445.86809,1345.30377 L2330.70007,1345.30377 L2330.70007,975.535816 L2438.69145,975.535816 Z M2738.05996,936.918645 C2738.05996,923.704444 2740.56607,911.287837 2745.57835,899.668453 C2750.59063,888.049069 2757.48242,877.910739 2766.25392,869.253159 C2775.02541,860.595579 2785.2207,853.703793 2796.84008,848.577594 C2808.45947,843.451395 2820.87607,840.888334 2834.09027,840.888334 C2847.07665,840.888334 2859.26542,843.451395 2870.65698,848.577594 C2882.04853,853.703793 2892.01599,860.595579 2900.55965,869.253159 C2909.10332,877.910739 2915.82423,888.049069 2920.7226,899.668453 C2925.62097,911.287837 2928.07012,923.704444 2928.07012,936.918645 C2928.07012,950.132846 2925.62097,962.492496 2920.7226,973.997964 C2915.82423,985.503433 2909.10332,995.527849 2900.55965,1004.07151 C2892.01599,1012.61518 2882.04853,1019.33609 2870.65698,1024.23446 C2859.26542,1029.13283 2847.07665,1031.58198 2834.09027,1031.58198 C2820.87607,1031.58198 2808.45947,1029.13283 2796.84008,1024.23446 C2785.2207,1019.33609 2775.02541,1012.61518 2766.25392,1004.07151 C2757.48242,995.527849 2750.59063,985.503433 2745.57835,973.997964 C2740.56607,962.492496 2738.05996,950.132846 2738.05996,936.918645 L2738.05996,936.918645 Z M2791.03042,936.918645 C2791.03042,943.070083 2792.16956,948.708818 2794.44787,953.835016 C2796.72618,958.961215 2799.85881,963.403854 2803.84585,967.163067 C2807.8329,970.922279 2812.38945,973.884038 2817.51565,976.048433 C2822.64185,978.212828 2828.16667,979.29501 2834.09027,979.29501 C2839.78605,979.29501 2845.19696,978.269785 2850.32316,976.219306 C2855.44936,974.168826 2859.83504,971.264024 2863.48033,967.504811 C2867.12563,963.745599 2870.03043,959.246003 2872.19483,954.005889 C2874.35922,948.765774 2875.44141,943.070083 2875.44141,936.918645 C2875.44141,930.767206 2874.35922,925.014558 2872.19483,919.660529 C2870.03043,914.306499 2867.12563,909.636032 2863.48033,905.648989 C2859.83504,901.661945 2855.44936,898.586272 2850.32316,896.421877 C2845.19696,894.257482 2839.78605,893.1753 2834.09027,893.1753 C2828.16667,893.1753 2822.64185,894.257482 2817.51565,896.421877 C2812.38945,898.586272 2807.8329,901.661945 2803.84585,905.648989 C2799.85881,909.636032 2796.72618,914.306499 2794.44787,919.660529 C2792.16956,925.014558 2791.03042,930.767206 2791.03042,936.918645 L2791.03042,936.918645 Z M3258.87916,1345.30377 L3143.36939,1345.30377 L3143.36939,977.586285 L3029.91009,1010.73554 L3029.91009,923.24885 L3248.28507,847.723232 L3258.87916,847.723232 L3258.87916,1345.30377 Z" id="SpareWorker-:-Copy" opacity="0.141033116" fill="#50E3C2" sketch:type="MSShapeGroup"></path>
    </g>
</svg>